<svg version="1.1" id="Layer_1" xmlns="http://www.w3.org/2000/svg" xmlns:xlink="http://www.w3.org/1999/xlink" x="0px" y="0px"
	 width="100%" viewBox="0 0 512 512" enable-background="new 0 0 512 512" xml:space="preserve">
<path fill="#F7524B" opacity="1.000000" stroke="none" 
	d="
M31.138439,386.983032 
	C31.092697,365.386688 30.447662,343.768585 31.229086,322.202240 
	C31.687719,309.544495 37.250263,298.084564 44.737690,287.796417 
	C52.622406,276.962311 62.828426,269.050507 75.980103,263.928497 
	C86.514069,260.244965 96.611031,258.899109 107.063446,258.932190 
	C144.355286,259.050201 181.648010,258.889374 219.331024,258.899902 
	C228.193237,261.991058 236.664810,265.016388 245.078888,268.505646 
	C245.021378,295.525269 245.021378,322.080994 245.021378,348.956482 
	C251.025375,348.956482 256.482819,348.956482 262.087708,349.314575 
	C262.275330,353.767609 262.315430,357.862518 262.280945,362.420898 
	C262.165070,365.708466 262.230927,368.538971 262.061707,371.355377 
	C261.614136,378.804871 264.360443,384.706055 270.605194,388.776794 
	C276.250336,392.456635 282.629700,392.030792 289.424347,391.658295 
	C297.177185,391.606049 304.522522,391.953339 311.747101,391.176758 
	C320.147491,390.273743 324.496674,384.328613 323.956299,375.996460 
	C323.431946,367.911041 317.429779,362.117493 309.377869,361.956512 
	C305.228546,361.873535 301.078278,361.837860 296.931549,361.332275 
	C297.338348,356.876038 297.742035,352.868286 298.599335,348.919617 
	C313.030884,349.035278 327.008789,349.091888 340.931152,349.491577 
	C340.380371,350.881500 340.002075,352.005127 339.372498,352.963715 
	C329.426971,368.106964 324.470673,384.680206 324.980865,402.835876 
	C287.973816,402.883575 250.966797,402.931305 213.476318,402.492065 
	C212.672821,399.373169 212.303787,396.746155 212.040131,394.108612 
	C208.794510,361.640259 192.302750,337.835754 164.096909,322.178558 
	C146.017899,312.142792 126.374329,309.994019 105.707413,313.186096 
	C103.565811,313.715424 101.762825,314.017700 100.014244,314.512299 
	C64.647552,324.516724 42.530052,347.460236 33.187386,382.913635 
	C32.808792,384.350311 31.834949,385.630127 31.138439,386.983032 
z"/>
<path fill="#FFDC6E" opacity="1.000000" stroke="none" 
	d="
M90.970589,99.163406 
	C98.012123,99.114571 105.053665,99.065735 112.558655,99.548714 
	C113.025787,142.331772 113.029472,184.582993 112.566895,226.902527 
	C105.045303,227.031021 97.989967,227.091217 90.934639,227.151413 
	C67.138062,227.100983 43.341473,227.052475 19.544899,226.999008 
	C12.157437,226.982407 8.004307,222.823502 8.002899,215.408035 
	C7.996263,180.457077 7.995976,145.506119 8.003078,110.555168 
	C8.004580,103.163086 12.174615,99.007484 19.583481,99.003334 
	C30.401573,98.997276 41.219681,99.014267 52.501541,99.551811 
	C52.969608,115.373199 52.923424,130.664490 53.004467,145.955078 
	C53.034538,151.627716 55.250679,153.788651 60.873291,153.853287 
	C67.853058,153.933533 74.834503,153.893356 81.815102,153.869537 
	C88.760635,153.845840 90.930801,151.669220 90.950302,144.537796 
	C90.991669,129.413101 90.967743,114.288216 90.970589,99.163406 
z"/>
<path fill="#FFDC6E" opacity="1.000000" stroke="none" 
	d="
M155.242340,175.662186 
	C163.826202,150.731949 179.260605,131.705811 203.864594,119.925537 
	C205.005737,119.521202 205.485840,119.204071 205.965958,118.886940 
	C205.965958,118.886940 205.975830,118.958473 206.341934,118.943237 
	C207.680161,118.716278 208.677429,118.583145 209.620636,118.281128 
	C224.428741,113.539589 239.683395,111.321312 255.118713,109.964600 
	C259.135712,109.611526 261.040100,111.046165 262.434631,114.784729 
	C266.365295,125.322548 273.151276,134.069336 281.873871,140.922455 
	C286.401672,144.479843 287.929047,148.486404 288.017426,153.689301 
	C288.104340,158.807709 289.475769,163.358322 292.898956,167.415375 
	C297.292053,172.621918 300.958466,178.462021 305.532501,183.488022 
	C308.429169,186.670883 312.110107,189.479431 315.971313,191.368576 
	C322.380524,194.504364 329.178619,196.870255 335.883240,199.372009 
	C349.282288,204.371719 362.728973,209.243866 376.046448,214.529053 
	C372.814545,220.276520 373.379303,225.671494 375.519470,231.034622 
	C371.426941,230.061844 367.717255,229.125076 363.603088,228.103821 
	C346.248779,223.035782 329.280792,218.112778 312.360352,213.031555 
	C307.333618,211.522049 301.721100,210.568375 297.625488,207.623596 
	C286.806732,199.844818 276.723267,191.049042 266.207397,182.836975 
	C264.706299,181.664703 261.918365,180.391983 260.591187,181.013458 
	C245.987961,187.851425 231.556259,195.055695 216.692169,202.100952 
	C208.994232,198.971924 201.651352,195.973587 194.376846,192.817688 
	C181.310349,187.149094 168.284927,181.385880 155.242340,175.662186 
z"/>
<path fill="#E14844" opacity="1.000000" stroke="none" 
	d="
M325.441345,402.910126 
	C324.470673,384.680206 329.426971,368.106964 339.372498,352.963715 
	C340.002075,352.005127 340.380371,350.881500 341.237915,349.326111 
	C347.389435,339.862122 355.322479,333.093506 364.243530,326.924011 
	C375.743530,320.558136 387.325500,315.359467 400.263611,313.289795 
	C418.233337,320.624908 433.778046,330.635132 445.622040,346.022400 
	C458.522919,362.782715 465.541412,381.507751 465.491516,402.728638 
	C461.027496,402.852570 457.020203,402.926086 452.546997,402.936523 
	C427.251465,402.911499 402.421844,402.949524 377.150177,402.951965 
	C364.126282,402.997742 351.544403,403.079102 338.962555,403.160461 
	C334.608978,403.101776 330.255402,403.043060 325.441345,402.910126 
z"/>
<path fill="#E14844" opacity="1.000000" stroke="none" 
	d="
M31.062357,387.446228 
	C31.834949,385.630127 32.808792,384.350311 33.187386,382.913635 
	C42.530052,347.460236 64.647552,324.516724 100.014244,314.512299 
	C101.762825,314.017700 103.565811,313.715424 105.936943,313.439575 
	C107.572433,314.051727 108.582092,314.636444 109.661278,315.030884 
	C127.426178,321.523376 141.818909,332.451660 153.336319,347.451385 
	C165.911850,363.829193 171.544189,382.543457 172.509033,402.863281 
	C167.946518,402.982513 163.845490,403.049744 159.294327,403.066650 
	C133.906158,403.049530 108.968117,403.082703 83.562302,403.061340 
	C70.383507,403.057953 57.672489,403.109039 44.961472,403.160156 
	C42.639431,403.111450 40.317589,403.045349 37.995293,403.019104 
	C35.865906,402.995026 33.736031,403.014008 30.986271,403.014008 
	C30.986271,397.750427 30.986271,392.829926 31.062357,387.446228 
z"/>
<path fill="#484A50" opacity="1.000000" stroke="none" 
	d="
M245.136383,268.041718 
	C236.664810,265.016388 228.193237,261.991058 219.080658,258.665588 
	C203.438400,253.129562 188.350815,248.125290 173.465698,242.577759 
	C163.248016,238.769714 151.686661,237.159439 144.912445,226.959824 
	C138.630264,215.485123 141.294647,204.513565 146.708694,193.652893 
	C148.391312,190.277527 149.835175,186.783157 151.902771,183.394470 
	C170.264465,191.575058 188.085281,199.763062 205.965485,207.819290 
	C229.460236,218.405273 253.160370,228.552780 276.440735,239.588074 
	C285.092926,243.689331 290.440186,251.058838 290.056427,261.597229 
	C289.512115,276.543762 289.314911,291.503387 289.019531,306.458435 
	C288.655121,324.909241 288.342133,343.361053 287.541382,361.872162 
	C278.835724,361.940399 270.595612,361.948914 262.355530,361.957458 
	C262.315430,357.862518 262.275330,353.767609 262.109619,348.849030 
	C262.322479,324.861084 262.648102,301.696625 263.018402,278.532867 
	C263.057373,276.096161 263.004364,273.997620 260.068756,273.086212 
	C255.052734,271.528900 250.109940,269.735779 245.136383,268.041718 
z"/>
<path fill="#404049" opacity="1.000000" stroke="none" 
	d="
M453.012909,402.999573 
	C457.020203,402.926086 461.027496,402.852570 465.955414,402.827759 
	C475.263824,402.969391 483.651581,403.062286 492.039368,403.155212 
	C490.936951,421.493988 485.652679,438.135010 473.310852,452.297913 
	C456.441711,471.656158 435.001373,480.602783 409.834839,478.788574 
	C375.111328,476.285400 348.548676,453.210999 340.308350,418.366486 
	C339.216248,413.748352 339.394531,408.829834 338.973511,403.605438 
	C351.544403,403.079102 364.126282,402.997742 377.147339,403.396240 
	C379.379639,425.965485 395.641479,440.953949 416.991638,440.195648 
	C436.987976,439.485474 452.655243,423.307220 453.012909,402.999573 
z"/>
<path fill="#404049" opacity="1.000000" stroke="none" 
	d="
M159.744446,403.116943 
	C163.845490,403.049744 167.946518,402.982513 172.975708,402.930511 
	C181.952805,403.018097 190.001770,403.090485 198.050735,403.162872 
	C198.364120,440.197144 171.673981,471.215149 136.069336,477.687378 
	C110.554138,482.325562 87.997795,475.479919 68.851746,457.473999 
	C56.490185,445.848602 49.652119,431.526276 46.247036,415.280762 
	C45.473225,411.588959 45.396297,407.751068 44.980042,403.570312 
	C57.672489,403.109039 70.383507,403.057953 83.571274,403.476562 
	C84.629524,414.593018 88.671402,423.706055 96.734047,430.695831 
	C108.328964,440.747955 121.744141,443.189667 135.862625,437.532166 
	C151.055328,431.444275 158.711472,419.398895 159.744446,403.116943 
z"/>
<path fill="#E14844" opacity="1.000000" stroke="none" 
	d="
M318.148743,135.004089 
	C314.851929,143.895325 308.249908,146.043579 298.208069,140.937042 
	C283.930084,132.910873 274.040802,122.055832 269.294098,106.858871 
	C269.063110,106.119370 268.432892,105.504547 267.988586,104.831673 
	C265.654938,92.648865 265.924866,80.736687 270.883423,69.082039 
	C276.261169,56.442112 284.774261,46.919334 297.867493,41.190895 
	C305.210754,41.200062 311.970062,40.503632 318.642761,40.991703 
	C340.637817,42.600517 360.504608,61.789719 364.404633,82.817444 
	C365.156189,86.869591 365.604523,90.977982 366.192719,95.060432 
	C366.192719,95.060432 366.121735,95.187180 365.628784,95.094589 
	C354.582367,93.993935 344.042847,92.784142 333.470245,92.053040 
	C327.070435,91.610481 322.040161,95.387222 321.311707,101.385178 
	C319.955109,112.554771 319.171082,123.793900 318.148743,135.004089 
z"/>
<path fill="#CB413D" opacity="1.000000" stroke="none" 
	d="
M492.500916,403.096558 
	C483.651581,403.062286 475.263824,402.969391 466.412140,402.777313 
	C465.541412,381.507751 458.522919,362.782715 445.622040,346.022400 
	C433.778046,330.635132 418.233337,320.624908 400.681091,313.257812 
	C412.331390,311.184570 423.737427,311.425568 435.074890,313.983337 
	C448.104248,315.712891 459.370636,321.664459 469.686340,329.300964 
	C487.956940,342.826233 499.542145,360.974121 504.485352,383.128632 
	C505.868103,389.325836 505.865875,395.832092 506.582672,403.037933 
	C501.474548,403.037933 497.218506,403.037933 492.500916,403.096558 
z"/>
<path fill="#CB413D" opacity="1.000000" stroke="none" 
	d="
M198.512161,403.108154 
	C190.001770,403.090485 181.952805,403.018097 173.437164,402.878479 
	C171.544189,382.543457 165.911850,363.829193 153.336319,347.451385 
	C141.818909,332.451660 127.426178,321.523376 109.661278,315.030884 
	C108.582092,314.636444 107.572433,314.051727 106.300888,313.302063 
	C126.374329,309.994019 146.017899,312.142792 164.096909,322.178558 
	C192.302750,337.835754 208.794510,361.640259 212.040131,394.108612 
	C212.303787,396.746155 212.672821,399.373169 213.013123,402.432678 
	C208.346771,402.924622 203.660172,402.989014 198.512161,403.108154 
z"/>
<path fill="#EF464E" opacity="1.000000" stroke="none" 
	d="
M364.007599,228.188309 
	C367.717255,229.125076 371.426941,230.061844 375.755554,231.270981 
	C379.620605,235.651825 383.650909,238.331680 389.477020,238.526352 
	C400.585815,236.949677 406.104736,230.297241 405.004974,220.336716 
	C404.124756,212.365021 396.906189,206.764557 387.688538,207.163116 
	C385.913910,207.485916 384.501953,207.828964 382.739227,208.037598 
	C376.196838,205.266373 370.005219,202.629547 363.813568,199.992722 
	C363.875977,198.669510 363.956085,197.346863 363.998016,196.022995 
	C364.346924,185.010178 368.299652,182.538696 376.109436,181.142685 
	C387.480377,179.110138 398.961914,177.697937 410.393188,176.000473 
	C416.976379,175.022919 423.553467,174.004486 430.495972,173.536865 
	C430.824310,182.045883 430.736359,190.022720 430.766724,197.999100 
	C430.832550,215.277206 430.958923,232.555099 431.060547,249.833069 
	C427.985168,249.358185 424.909790,248.883316 421.099670,248.079041 
	C419.737488,247.545044 419.124207,247.246872 418.480499,247.149506 
	C400.373169,244.410843 382.262756,241.692474 364.097229,238.520615 
	C364.030243,234.776398 364.018921,231.482361 364.007599,228.188309 
z"/>
<path fill="#F7524B" opacity="1.000000" stroke="none" 
	d="
M435.037933,313.565002 
	C423.737427,311.425568 412.331390,311.184570 400.447876,313.002686 
	C387.325500,315.359467 375.743530,320.558136 364.291260,326.459656 
	C364.034729,302.370605 364.087097,278.701080 364.502380,255.080780 
	C370.330139,257.127777 375.796204,259.122070 381.259491,261.124084 
	C396.547363,266.726196 411.834106,272.331512 427.121277,277.935577 
	C429.747864,289.672607 432.374420,301.409668 435.037933,313.565002 
z"/>
<path fill="#404049" opacity="1.000000" stroke="none" 
	d="
M144.452454,226.973373 
	C151.686661,237.159439 163.248016,238.769714 173.465698,242.577759 
	C188.350815,248.125290 203.438400,253.129562 218.690033,258.599762 
	C181.648010,258.889374 144.355286,259.050201 107.063446,258.932190 
	C96.611031,258.899109 86.514069,260.244965 76.343658,263.854187 
	C75.979950,258.011932 75.864548,252.178757 76.036285,246.354080 
	C76.302422,237.327942 81.389015,230.876617 90.713760,227.409790 
	C97.989967,227.091217 105.045303,227.031021 113.025391,226.970032 
	C118.961212,226.949051 123.972267,226.928833 128.983322,226.908630 
	C133.986359,226.934723 138.989410,226.960815 144.452454,226.973373 
z"/>
<path fill="#FFCA29" opacity="1.000000" stroke="none" 
	d="
M129.118530,226.593201 
	C123.972267,226.928833 118.961212,226.949051 113.491653,226.901749 
	C113.029472,184.582993 113.025787,142.331772 113.023705,99.622406 
	C117.013504,99.109261 121.001785,99.004547 124.989891,99.010399 
	C131.632889,99.020157 135.997391,103.421066 135.999725,110.120369 
	C136.011932,145.051559 135.917694,179.983185 136.094406,214.913467 
	C136.122375,220.439026 133.814026,223.862106 129.118530,226.593201 
z"/>
<path fill="#414149" opacity="1.000000" stroke="none" 
	d="
M288.006927,361.812439 
	C288.342133,343.361053 288.655121,324.909241 289.019531,306.458435 
	C289.314911,291.503387 289.512115,276.543762 290.056427,261.597229 
	C290.440186,251.058838 285.092926,243.689331 276.440735,239.588074 
	C253.160370,228.552780 229.460236,218.405273 205.965485,207.819290 
	C188.085281,199.763062 170.264465,191.575058 152.184387,183.176666 
	C152.931015,180.711853 153.910507,178.516083 155.066162,175.991241 
	C168.284927,181.385880 181.310349,187.149094 194.376846,192.817688 
	C201.651352,195.973587 208.994232,198.971924 216.899185,202.368896 
	C224.721069,205.997452 231.929657,209.344055 239.183380,212.589737 
	C253.991989,219.215805 268.767181,225.921722 283.667816,232.335281 
	C293.855011,236.720093 300.100067,245.512375 299.956604,256.720825 
	C299.863403,264.002075 299.172760,271.275146 299.054871,278.556793 
	C298.675629,301.990143 298.437988,325.425781 298.145721,348.860535 
	C297.742035,352.868286 297.338348,356.876038 296.489716,361.407043 
	C293.664276,362.008453 291.283813,362.086578 288.677490,362.081116 
	C288.451660,361.997467 288.006927,361.812439 288.006927,361.812439 
z"/>
<path fill="#F7534B" opacity="1.000000" stroke="none" 
	d="
M90.510498,99.092339 
	C90.967743,114.288216 90.991669,129.413101 90.950302,144.537796 
	C90.930801,151.669220 88.760635,153.845840 81.815102,153.869537 
	C74.834503,153.893356 67.853058,153.933533 60.873291,153.853287 
	C55.250679,153.788651 53.034538,151.627716 53.004467,145.955078 
	C52.923424,130.664490 52.969608,115.373199 52.962704,99.624298 
	C65.323540,99.118027 77.686981,99.069649 90.510498,99.092339 
z"/>
<path fill="#FFD96D" opacity="1.000000" stroke="none" 
	d="
M431.476685,249.871460 
	C430.958923,232.555099 430.832550,215.277206 430.766724,197.999100 
	C430.736359,190.022720 430.824310,182.045883 430.913574,173.613770 
	C442.127014,171.703430 452.356110,180.336716 457.181519,190.901489 
	C464.752167,207.476624 463.486328,223.420578 453.027069,238.619522 
	C447.836487,246.162308 440.608276,249.276520 431.476685,249.871460 
z"/>
<path fill="#FFCA2B" opacity="1.000000" stroke="none" 
	d="
M363.435425,199.989822 
	C370.005219,202.629547 376.196838,205.266373 382.557129,208.307159 
	C380.535858,210.530319 378.345917,212.349503 376.155975,214.168686 
	C362.728973,209.243866 349.282288,204.371719 335.883240,199.372009 
	C329.178619,196.870255 322.380524,194.504364 315.971313,191.368576 
	C312.110107,189.479431 308.429169,186.670883 305.532501,183.488022 
	C300.958466,178.462021 297.292053,172.621918 292.898956,167.415375 
	C289.475769,163.358322 288.104340,158.807709 288.017426,153.689301 
	C287.929047,148.486404 286.401672,144.479843 281.873871,140.922455 
	C273.151276,134.069336 266.365295,125.322548 262.434631,114.784729 
	C261.040100,111.046165 259.135712,109.611526 255.118713,109.964600 
	C239.683395,111.321312 224.428741,113.539589 209.620636,118.281128 
	C208.677429,118.583145 207.680161,118.716278 206.306702,118.935379 
	C216.431900,115.296295 226.756363,110.786140 237.545456,108.261726 
	C247.117050,106.022186 257.204681,105.988106 267.526550,104.906082 
	C268.432892,105.504547 269.063110,106.119370 269.294098,106.858871 
	C274.040802,122.055832 283.930084,132.910873 297.862610,140.826599 
	C298.742767,146.047791 298.479797,151.380280 300.296082,155.871994 
	C302.179291,160.529144 306.034821,164.402802 309.105194,168.561920 
	C312.185547,172.734543 314.830566,177.442398 318.651764,180.791306 
	C322.149200,183.856491 326.820831,185.765793 331.225220,187.575623 
	C341.757507,191.903503 352.437164,195.872833 363.435425,199.989822 
z"/>
<path fill="#F6DBCC" opacity="1.000000" stroke="none" 
	d="
M318.593140,135.002899 
	C319.171082,123.793900 319.955109,112.554771 321.311707,101.385178 
	C322.040161,95.387222 327.070435,91.610481 333.470245,92.053040 
	C344.042847,92.784142 354.582367,93.993935 365.560669,95.069397 
	C364.555573,114.196747 349.922668,130.776688 330.732971,133.956345 
	C326.882477,134.594360 322.938446,134.667892 318.593140,135.002899 
z"/>
<path fill="#CC413D" opacity="1.000000" stroke="none" 
	d="
M427.078003,277.513367 
	C411.834106,272.331512 396.547363,266.726196 381.259491,261.124084 
	C375.796204,259.122070 370.330139,257.127777 364.430511,254.616547 
	C364.048096,249.058990 364.100464,244.014893 364.152863,238.970779 
	C382.262756,241.692474 400.373169,244.410843 418.480499,247.149506 
	C419.124207,247.246872 419.737488,247.545044 420.741608,247.912384 
	C423.090393,257.747131 425.062561,267.419128 427.078003,277.513367 
z"/>
<path fill="#CC413D" opacity="1.000000" stroke="none" 
	d="
M366.570435,95.037445 
	C365.604523,90.977982 365.156189,86.869591 364.404633,82.817444 
	C360.504608,61.789719 340.637817,42.600517 318.642761,40.991703 
	C311.970062,40.503632 305.210754,41.200062 298.227203,41.126694 
	C308.055023,35.375641 318.661316,34.249939 330.059631,35.760864 
	C343.720032,37.571640 355.053558,43.373116 363.897980,53.570988 
	C371.332458,62.143181 376.858093,71.928055 376.980530,83.813858 
	C377.045776,90.148178 373.477386,94.018738 366.570435,95.037445 
z"/>
<path fill="#FFCA2B" opacity="1.000000" stroke="none" 
	d="
M205.655014,118.932945 
	C205.485840,119.204071 205.005737,119.521202 204.230148,119.868790 
	C204.404465,119.592484 204.874268,119.285713 205.655014,118.932945 
z"/>
<path fill="#000000" opacity="1.000000" stroke="none" 
	d="
M364.097229,238.520615 
	C364.100464,244.014893 364.048096,249.058990 364.067566,254.567337 
	C364.087097,278.701080 364.034729,302.370605 363.934631,326.504517 
	C355.322479,333.093506 347.389435,339.862122 341.293488,348.983032 
	C327.008789,349.091888 313.030884,349.035278 298.599335,348.919617 
	C298.437988,325.425781 298.675629,301.990143 299.054871,278.556793 
	C299.172760,271.275146 299.863403,264.002075 299.956604,256.720825 
	C300.100067,245.512375 293.855011,236.720093 283.667816,232.335281 
	C268.767181,225.921722 253.991989,219.215805 239.183380,212.589737 
	C231.929657,209.344055 224.721069,205.997452 217.285065,202.428589 
	C231.556259,195.055695 245.987961,187.851425 260.591187,181.013458 
	C261.918365,180.391983 264.706299,181.664703 266.207397,182.836975 
	C276.723267,191.049042 286.806732,199.844818 297.625488,207.623596 
	C301.721100,210.568375 307.333618,211.522049 312.360352,213.031555 
	C329.280792,218.112778 346.248779,223.035782 363.603088,228.103821 
	C364.018921,231.482361 364.030243,234.776398 364.097229,238.520615 
z"/>
<path fill="#000000" opacity="1.000000" stroke="none" 
	d="
M245.078888,268.505646 
	C250.109940,269.735779 255.052734,271.528900 260.068756,273.086212 
	C263.004364,273.997620 263.057373,276.096161 263.018402,278.532867 
	C262.648102,301.696625 262.322479,324.861084 261.962128,348.490906 
	C256.482819,348.956482 251.025375,348.956482 245.021378,348.956482 
	C245.021378,322.080994 245.021378,295.525269 245.078888,268.505646 
z"/>
<path fill="#FFC929" opacity="1.000000" stroke="none" 
	d="
M288.903320,362.164734 
	C291.283813,362.086578 293.664276,362.008453 296.486603,361.855560 
	C301.078278,361.837860 305.228546,361.873535 309.377869,361.956512 
	C317.429779,362.117493 323.431946,367.911041 323.956299,375.996460 
	C324.496674,384.328613 320.147491,390.273743 311.747101,391.176758 
	C304.522522,391.953339 297.177185,391.606049 289.416077,391.227295 
	C288.932404,381.187469 288.917847,371.676117 288.903320,362.164734 
z"/>
<path fill="#FFDA6D" opacity="1.000000" stroke="none" 
	d="
M288.677490,362.081116 
	C288.917847,371.676117 288.932404,381.187469 288.955200,391.129883 
	C282.629700,392.030792 276.250336,392.456635 270.605194,388.776794 
	C264.360443,384.706055 261.614136,378.804871 262.061707,371.355377 
	C262.230927,368.538971 262.165070,365.708466 262.280945,362.420898 
	C270.595612,361.948914 278.835724,361.940399 287.541382,361.872162 
	C288.006927,361.812439 288.451660,361.997467 288.677490,362.081116 
z"/>
<path fill="#4A4A50" opacity="1.000000" stroke="none" 
	d="
M376.046448,214.529053 
	C378.345917,212.349503 380.535858,210.530319 382.907898,208.441574 
	C384.501953,207.828964 385.913910,207.485916 387.877747,207.431900 
	C399.709320,214.248627 402.241516,224.099838 394.822296,233.163239 
	C393.178497,235.171341 390.993103,236.736130 389.057068,238.505035 
	C383.650909,238.331680 379.620605,235.651825 376.138428,231.307007 
	C373.379303,225.671494 372.814545,220.276520 376.046448,214.529053 
z"/>
<path fill="#EFEFFB" opacity="1.000000" stroke="none" 
	d="
M452.546997,402.936523 
	C452.655243,423.307220 436.987976,439.485474 416.991638,440.195648 
	C395.641479,440.953949 379.379639,425.965485 377.589386,403.431824 
	C402.421844,402.949524 427.251465,402.911499 452.546997,402.936523 
z"/>
<path fill="#EFEFFB" opacity="1.000000" stroke="none" 
	d="
M159.294327,403.066650 
	C158.711472,419.398895 151.055328,431.444275 135.862625,437.532166 
	C121.744141,443.189667 108.328964,440.747955 96.734047,430.695831 
	C88.671402,423.706055 84.629524,414.593018 84.039047,403.531036 
	C108.968117,403.082703 133.906158,403.049530 159.294327,403.066650 
z"/>
<path fill="#414149" opacity="1.000000" stroke="none" 
	d="
M389.477020,238.526367 
	C390.993103,236.736130 393.178497,235.171341 394.822296,233.163239 
	C402.241516,224.099838 399.709320,214.248627 388.240417,207.452164 
	C396.906189,206.764557 404.124756,212.365021 405.004974,220.336716 
	C406.104736,230.297241 400.585815,236.949677 389.477020,238.526367 
z"/>
</svg>