<svg xmlns="http://www.w3.org/2000/svg" viewBox="0 0 192 192" width="192" height="192">
  <rect width="192" height="192" rx="40" fill="#0A0604"/>
  <!-- Burger bun top -->
  <ellipse cx="96" cy="68" rx="52" ry="22" fill="#B08850"/>
  <ellipse cx="96" cy="60" rx="48" ry="20" fill="#C49A60"/>
  <!-- Sesame seeds -->
  <ellipse cx="84" cy="55" rx="5" ry="3" fill="#E8C07A" transform="rotate(-15 84 55)"/>
  <ellipse cx="100" cy="51" rx="5" ry="3" fill="#E8C07A" transform="rotate(10 100 51)"/>
  <ellipse cx="114" cy="57" rx="5" ry="3" fill="#E8C07A" transform="rotate(-20 114 57)"/>
  <!-- Patty -->
  <ellipse cx="96" cy="86" rx="56" ry="14" fill="#5C2A0E"/>
  <ellipse cx="96" cy="83" rx="54" ry="11" fill="#7A3A14"/>
  <!-- Cheese -->
  <path d="M42 96 L150 96 L155 107 L37 107 Z" fill="#F5B731"/>
  <!-- Lettuce -->
  <path d="M38 103 Q50 98 62 105 Q74 98 86 105 Q98 98 110 105 Q122 98 134 105 Q146 98 154 103 L154 112 Q146 107 134 114 Q122 107 110 114 Q98 107 86 114 Q74 107 62 114 Q50 107 38 112 Z" fill="#4A7C3F"/>
  <!-- Bun bottom -->
  <ellipse cx="96" cy="120" rx="56" ry="16" fill="#C49A60"/>
  <ellipse cx="96" cy="124" rx="52" ry="12" fill="#B08850"/>
</svg>
